<mxfile host="app.diagrams.net" modified="2021-06-30T12:18:39.673Z" agent="5.0 (Windows NT 10.0; Win64; x64) AppleWebKit/537.36 (KHTML, like Gecko) Chrome/91.0.4472.124 Safari/537.36" etag="GSsPlJ1zJR0E7VUme600" version="14.8.2" type="github">
  <diagram id="v-wtuk_-yEVzXyu53uFW" name="Page-1">
    <mxGraphModel dx="3773" dy="1521" grid="1" gridSize="10" guides="1" tooltips="1" connect="1" arrows="1" fold="1" page="1" pageScale="1" pageWidth="827" pageHeight="1169" math="0" shadow="0">
      <root>
        <mxCell id="0" />
        <mxCell id="1" parent="0" />
        <mxCell id="-sHsXnIv7ehbZTR2JKuz-21" value="Вертуальные сервера среды разработки" style="swimlane;sketch=0;fillColor=#5454FF;strokeColor=#5454FF;rounded=0;shadow=0;glass=0;swimlaneFillColor=#CCE5FF;fontColor=#FFFFFF;startSize=40;fontSize=14;" parent="1" vertex="1">
          <mxGeometry x="120" y="710" width="360" height="390" as="geometry" />
        </mxCell>
        <mxCell id="-sHsXnIv7ehbZTR2JKuz-10" value="" style="html=1;verticalLabelPosition=bottom;align=center;labelBackgroundColor=#ffffff;verticalAlign=top;strokeWidth=2;shadow=0;dashed=0;shape=mxgraph.ios7.icons.data;fillColor=#5454FF;strokeColor=#FFFFFF;" parent="-sHsXnIv7ehbZTR2JKuz-21" vertex="1">
          <mxGeometry x="123" y="280" width="76" height="80" as="geometry" />
        </mxCell>
        <mxCell id="-sHsXnIv7ehbZTR2JKuz-11" value="" style="points=[[0,0,0],[0.25,0,0],[0.5,0,0],[0.75,0,0],[1,0,0],[0,1,0],[0.25,1,0],[0.5,1,0],[0.75,1,0],[1,1,0],[0,0.25,0],[0,0.5,0],[0,0.75,0],[1,0.25,0],[1,0.5,0],[1,0.75,0]];outlineConnect=0;fontColor=#232F3E;gradientColor=#4AB29A;gradientDirection=north;fillColor=#116D5B;strokeColor=#ffffff;dashed=0;verticalLabelPosition=bottom;verticalAlign=top;align=center;html=1;fontSize=12;fontStyle=0;aspect=fixed;shape=mxgraph.aws4.resourceIcon;resIcon=mxgraph.aws4.desktop_and_app_streaming;" parent="-sHsXnIv7ehbZTR2JKuz-21" vertex="1">
          <mxGeometry x="123" y="110" width="78" height="78" as="geometry" />
        </mxCell>
        <mxCell id="-sHsXnIv7ehbZTR2JKuz-12" value="&lt;font style=&quot;font-size: 14px&quot;&gt;APP&lt;/font&gt;" style="text;html=1;resizable=0;autosize=1;align=center;verticalAlign=middle;points=[];fillColor=none;strokeColor=none;rounded=0;" parent="-sHsXnIv7ehbZTR2JKuz-21" vertex="1">
          <mxGeometry x="140" y="188" width="40" height="20" as="geometry" />
        </mxCell>
        <mxCell id="-sHsXnIv7ehbZTR2JKuz-13" value="&lt;font style=&quot;font-size: 14px&quot;&gt;Тестовая БД&lt;/font&gt;" style="text;html=1;resizable=0;autosize=1;align=center;verticalAlign=middle;points=[];fillColor=none;strokeColor=none;rounded=0;" parent="-sHsXnIv7ehbZTR2JKuz-21" vertex="1">
          <mxGeometry x="110" y="360" width="100" height="20" as="geometry" />
        </mxCell>
        <mxCell id="xNV7zSzciqL4xYP6tt0m-27" value="PrePROD" style="text;html=1;resizable=0;autosize=1;align=center;verticalAlign=middle;points=[];fillColor=none;strokeColor=none;rounded=0;fontStyle=1" vertex="1" parent="-sHsXnIv7ehbZTR2JKuz-21">
          <mxGeometry y="40" width="70" height="20" as="geometry" />
        </mxCell>
        <mxCell id="-sHsXnIv7ehbZTR2JKuz-47" style="rounded=0;orthogonalLoop=1;jettySize=auto;html=1;fontColor=#FFFFFF;" parent="1" source="xNV7zSzciqL4xYP6tt0m-25" edge="1">
          <mxGeometry relative="1" as="geometry">
            <mxPoint x="120" y="270" as="targetPoint" />
            <mxPoint x="-130" y="510" as="sourcePoint" />
          </mxGeometry>
        </mxCell>
        <mxCell id="-sHsXnIv7ehbZTR2JKuz-40" value="&lt;font style=&quot;font-size: 20px&quot;&gt;WAF Continent&lt;/font&gt;" style="text;html=1;resizable=0;autosize=1;align=center;verticalAlign=middle;points=[];fillColor=none;strokeColor=none;rounded=0;fontStyle=1" parent="1" vertex="1">
          <mxGeometry x="-250" y="480" width="160" height="20" as="geometry" />
        </mxCell>
        <mxCell id="-sHsXnIv7ehbZTR2JKuz-50" style="edgeStyle=orthogonalEdgeStyle;rounded=0;orthogonalLoop=1;jettySize=auto;html=1;fontColor=#FFFFFF;" parent="1" source="-sHsXnIv7ehbZTR2JKuz-45" target="xNV7zSzciqL4xYP6tt0m-25" edge="1">
          <mxGeometry relative="1" as="geometry">
            <mxPoint x="-250" y="586.5" as="targetPoint" />
          </mxGeometry>
        </mxCell>
        <mxCell id="-sHsXnIv7ehbZTR2JKuz-45" value="" style="verticalLabelPosition=bottom;html=1;verticalAlign=top;pointerEvents=1;align=center;shape=mxgraph.cisco_safe.people_places_things_icons.icon2;rounded=0;shadow=1;glass=0;sketch=0;fontColor=#FFFFFF;strokeWidth=4;perimeterSpacing=3;fillColor=#FF3399;" parent="1" vertex="1">
          <mxGeometry x="-543" y="526.5" width="130" height="120" as="geometry" />
        </mxCell>
        <mxCell id="-sHsXnIv7ehbZTR2JKuz-48" value="&lt;font style=&quot;font-size: 14px&quot;&gt;USERS&lt;/font&gt;" style="text;html=1;resizable=0;autosize=1;align=center;verticalAlign=middle;points=[];fillColor=none;strokeColor=none;rounded=0;fontStyle=1" parent="1" vertex="1">
          <mxGeometry x="-508" y="500" width="60" height="20" as="geometry" />
        </mxCell>
        <mxCell id="xNV7zSzciqL4xYP6tt0m-1" value="Верт.сервер продуктивного контура" style="swimlane;sketch=0;fillColor=#5454FF;strokeColor=#5454FF;rounded=0;shadow=0;glass=0;swimlaneFillColor=#CCE5FF;fontColor=#FFFFFF;startSize=40;fontSize=14;" vertex="1" parent="1">
          <mxGeometry x="120" y="110" width="360" height="390" as="geometry" />
        </mxCell>
        <mxCell id="xNV7zSzciqL4xYP6tt0m-2" value="" style="html=1;verticalLabelPosition=bottom;align=center;labelBackgroundColor=#ffffff;verticalAlign=top;strokeWidth=2;shadow=0;dashed=0;shape=mxgraph.ios7.icons.data;fillColor=#5454FF;strokeColor=#FFFFFF;" vertex="1" parent="xNV7zSzciqL4xYP6tt0m-1">
          <mxGeometry x="129" y="255" width="76" height="80" as="geometry" />
        </mxCell>
        <mxCell id="xNV7zSzciqL4xYP6tt0m-28" style="edgeStyle=orthogonalEdgeStyle;rounded=0;orthogonalLoop=1;jettySize=auto;html=1;exitX=0;exitY=0.5;exitDx=0;exitDy=0;exitPerimeter=0;entryX=-0.008;entryY=0.639;entryDx=0;entryDy=0;entryPerimeter=0;" edge="1" parent="xNV7zSzciqL4xYP6tt0m-1" source="xNV7zSzciqL4xYP6tt0m-3" target="xNV7zSzciqL4xYP6tt0m-2">
          <mxGeometry relative="1" as="geometry" />
        </mxCell>
        <mxCell id="xNV7zSzciqL4xYP6tt0m-3" value="" style="points=[[0,0,0],[0.25,0,0],[0.5,0,0],[0.75,0,0],[1,0,0],[0,1,0],[0.25,1,0],[0.5,1,0],[0.75,1,0],[1,1,0],[0,0.25,0],[0,0.5,0],[0,0.75,0],[1,0.25,0],[1,0.5,0],[1,0.75,0]];outlineConnect=0;fontColor=#232F3E;gradientColor=#4AB29A;gradientDirection=north;fillColor=#116D5B;strokeColor=#ffffff;dashed=0;verticalLabelPosition=bottom;verticalAlign=top;align=center;html=1;fontSize=12;fontStyle=0;aspect=fixed;shape=mxgraph.aws4.resourceIcon;resIcon=mxgraph.aws4.desktop_and_app_streaming;" vertex="1" parent="xNV7zSzciqL4xYP6tt0m-1">
          <mxGeometry x="129" y="85" width="78" height="78" as="geometry" />
        </mxCell>
        <mxCell id="xNV7zSzciqL4xYP6tt0m-5" value="&lt;font style=&quot;font-size: 14px&quot;&gt;APP&lt;/font&gt;" style="text;html=1;resizable=0;autosize=1;align=center;verticalAlign=middle;points=[];fillColor=none;strokeColor=none;rounded=0;" vertex="1" parent="xNV7zSzciqL4xYP6tt0m-1">
          <mxGeometry x="148" y="163" width="40" height="20" as="geometry" />
        </mxCell>
        <mxCell id="xNV7zSzciqL4xYP6tt0m-6" value="&lt;font style=&quot;font-size: 14px&quot;&gt;DB&lt;/font&gt;" style="text;html=1;resizable=0;autosize=1;align=center;verticalAlign=middle;points=[];fillColor=none;strokeColor=none;rounded=0;" vertex="1" parent="xNV7zSzciqL4xYP6tt0m-1">
          <mxGeometry x="153" y="335" width="30" height="20" as="geometry" />
        </mxCell>
        <mxCell id="xNV7zSzciqL4xYP6tt0m-7" value="PROD" style="text;html=1;resizable=0;autosize=1;align=center;verticalAlign=middle;points=[];fillColor=none;strokeColor=none;rounded=0;fontStyle=1" vertex="1" parent="xNV7zSzciqL4xYP6tt0m-1">
          <mxGeometry y="40" width="50" height="20" as="geometry" />
        </mxCell>
        <mxCell id="xNV7zSzciqL4xYP6tt0m-24" style="edgeStyle=orthogonalEdgeStyle;rounded=0;orthogonalLoop=1;jettySize=auto;html=1;exitX=0.553;exitY=0.144;exitDx=0;exitDy=0;exitPerimeter=0;entryX=1;entryY=0.5;entryDx=0;entryDy=0;entryPerimeter=0;dashed=1;strokeWidth=3;strokeColor=#009999;" edge="1" parent="1" source="xNV7zSzciqL4xYP6tt0m-16" target="xNV7zSzciqL4xYP6tt0m-3">
          <mxGeometry relative="1" as="geometry">
            <mxPoint x="480" y="280" as="targetPoint" />
            <Array as="points">
              <mxPoint x="760" y="234" />
            </Array>
          </mxGeometry>
        </mxCell>
        <mxCell id="xNV7zSzciqL4xYP6tt0m-16" value="" style="ellipse;shape=cloud;whiteSpace=wrap;html=1;dashed=1;" vertex="1" parent="1">
          <mxGeometry x="500" y="450" width="470" height="240" as="geometry" />
        </mxCell>
        <mxCell id="xNV7zSzciqL4xYP6tt0m-17" style="edgeStyle=orthogonalEdgeStyle;rounded=0;orthogonalLoop=1;jettySize=auto;html=1;exitX=1;exitY=0.25;exitDx=0;exitDy=0;exitPerimeter=0;entryX=0.55;entryY=0.95;entryDx=0;entryDy=0;entryPerimeter=0;dashed=1;strokeWidth=3;strokeColor=#009999;" edge="1" parent="1" source="-sHsXnIv7ehbZTR2JKuz-11" target="xNV7zSzciqL4xYP6tt0m-16">
          <mxGeometry relative="1" as="geometry">
            <mxPoint x="1270" y="710" as="targetPoint" />
            <Array as="points">
              <mxPoint x="759" y="839" />
            </Array>
          </mxGeometry>
        </mxCell>
        <mxCell id="xNV7zSzciqL4xYP6tt0m-25" value="" style="aspect=fixed;perimeter=ellipsePerimeter;html=1;align=center;shadow=0;dashed=0;spacingTop=3;image;image=img/lib/active_directory/shadowed_router.svg;fillColor=#00FF00;" vertex="1" parent="1">
          <mxGeometry x="-239.7" y="501.5" width="139.4" height="170" as="geometry" />
        </mxCell>
        <mxCell id="xNV7zSzciqL4xYP6tt0m-26" value="&lt;font style=&quot;font-size: 46px&quot;&gt;Gitlab&lt;/font&gt;" style="text;html=1;resizable=0;autosize=1;align=center;verticalAlign=middle;points=[];fillColor=none;strokeColor=none;rounded=0;fontStyle=1" vertex="1" parent="1">
          <mxGeometry x="677" y="555" width="150" height="30" as="geometry" />
        </mxCell>
        <mxCell id="xNV7zSzciqL4xYP6tt0m-29" style="edgeStyle=orthogonalEdgeStyle;rounded=0;orthogonalLoop=1;jettySize=auto;html=1;exitX=0;exitY=0.5;exitDx=0;exitDy=0;exitPerimeter=0;" edge="1" parent="1" source="-sHsXnIv7ehbZTR2JKuz-11">
          <mxGeometry relative="1" as="geometry">
            <mxPoint x="243" y="1040" as="targetPoint" />
            <Array as="points">
              <mxPoint x="223" y="859" />
              <mxPoint x="223" y="1040" />
            </Array>
          </mxGeometry>
        </mxCell>
      </root>
    </mxGraphModel>
  </diagram>
</mxfile>
